<?xml version="1.0" standalone="no"?>
<!DOCTYPE svg PUBLIC "-//W3C//DTD SVG 20010904//EN"
 "http://www.w3.org/TR/2001/REC-SVG-20010904/DTD/svg10.dtd">
<svg version="1.0" xmlns="http://www.w3.org/2000/svg"
 width="700.000000pt" height="700.000000pt" viewBox="0 0 700.000000 700.000000"
 preserveAspectRatio="xMidYMid meet">
<metadata>
Created by potrace 1.14, written by Peter Selinger 2001-2017
</metadata>
<g transform="translate(0.000000,700.000000) scale(0.100000,-0.100000)"
fill="#000000" stroke="none">
<path d="M3217 6425 c-1 -1 -47 -5 -102 -9 -55 -3 -111 -8 -125 -11 -14 -3
-41 -8 -60 -10 -19 -3 -46 -8 -60 -11 -14 -3 -36 -8 -50 -11 -231 -42 -544
-171 -774 -320 -185 -120 -415 -322 -531 -468 -22 -27 -48 -59 -58 -70 -24
-26 -145 -206 -182 -270 -94 -161 -191 -403 -240 -592 -70 -276 -87 -591 -49
-889 6 -48 5 -51 -24 -70 -133 -85 -199 -211 -190 -359 4 -60 10 -80 34 -113
28 -40 94 -82 128 -82 13 0 7 -12 -23 -47 -73 -87 -112 -193 -89 -237 27 -51
71 -55 191 -16 53 17 100 30 104 28 12 -3 63 -130 57 -139 -3 -5 -14 -9 -25
-9 -36 0 -128 -51 -154 -84 -70 -92 -75 -206 -12 -274 28 -30 93 -63 182 -92
101 -32 104 -38 109 -153 7 -151 40 -222 120 -258 46 -20 157 -20 213 1 31 11
32 11 115 -72 89 -89 154 -136 264 -191 125 -63 306 -115 460 -133 33 -3 68
-8 79 -11 24 -5 362 -4 427 1 26 2 69 7 95 10 26 3 68 8 93 11 81 9 312 56
454 91 109 28 420 125 507 159 11 4 22 -10 43 -54 35 -76 112 -149 186 -175
203 -73 423 65 438 274 6 83 -13 130 -67 167 -22 15 -40 31 -41 34 0 3 26 18
57 34 98 48 342 194 473 283 688 467 988 962 863 1423 l-15 56 45 66 c59 85
81 161 74 249 -5 62 -34 139 -57 153 -19 11 -10 22 22 29 50 10 76 32 84 71
13 72 -82 212 -193 282 l-41 27 5 53 c11 105 -58 282 -145 369 -71 72 -153
105 -277 111 -55 3 -118 1 -141 -5 l-41 -9 -18 51 c-19 52 -152 258 -222 343
-44 53 -273 286 -318 323 -179 148 -351 252 -595 362 -119 54 -398 134 -535
154 -22 3 -51 7 -65 9 -84 13 -392 28 -403 20z"/>
</g>
</svg>
